solid unit_sphere
  facet normal 0.194943595 0.038776692 0.980047633
    outer loop
      vertex 0.000000000 0.000000000 1.000000000
      vertex 0.382683432 0.000000000 0.923879533
      vertex 0.353553391 0.146446609 0.923879533
    endloop
  endfacet
  facet normal 0.165265200 0.110426676 0.980047633
    outer loop
      vertex 0.000000000 0.000000000 1.000000000
      vertex 0.353553391 0.146446609 0.923879533
      vertex 0.270598050 0.270598050 0.923879533
    endloop
  endfacet
  facet normal 0.110426676 0.165265200 0.980047633
    outer loop
      vertex 0.000000000 0.000000000 1.000000000
      vertex 0.270598050 0.270598050 0.923879533
      vertex 0.146446609 0.353553391 0.923879533
    endloop
  endfacet
  facet normal 0.038776692 0.194943595 0.980047633
    outer loop
      vertex 0.000000000 0.000000000 1.000000000
      vertex 0.146446609 0.353553391 0.923879533
      vertex 0.000000000 0.382683432 0.923879533
    endloop
  endfacet
  facet normal -0.038776692 0.194943595 0.980047633
    outer loop
      vertex 0.000000000 0.000000000 1.000000000
      vertex 0.000000000 0.382683432 0.923879533
      vertex -0.146446609 0.353553391 0.923879533
    endloop
  endfacet
  facet normal -0.110426676 0.165265200 0.980047633
    outer loop
      vertex 0.000000000 0.000000000 1.000000000
      vertex -0.146446609 0.353553391 0.923879533
      vertex -0.270598050 0.270598050 0.923879533
    endloop
  endfacet
  facet normal -0.165265200 0.110426676 0.980047633
    outer loop
      vertex 0.000000000 0.000000000 1.000000000
      vertex -0.270598050 0.270598050 0.923879533
      vertex -0.353553391 0.146446609 0.923879533
    endloop
  endfacet
  facet normal -0.194943595 0.038776692 0.980047633
    outer loop
      vertex 0.000000000 0.000000000 1.000000000
      vertex -0.353553391 0.146446609 0.923879533
      vertex -0.382683432 0.000000000 0.923879533
    endloop
  endfacet
  facet normal -0.194943595 -0.038776692 0.980047633
    outer loop
      vertex 0.000000000 0.000000000 1.000000000
      vertex -0.382683432 0.000000000 0.923879533
      vertex -0.353553391 -0.146446609 0.923879533
    endloop
  endfacet
  facet normal -0.165265200 -0.110426676 0.980047633
    outer loop
      vertex 0.000000000 0.000000000 1.000000000
      vertex -0.353553391 -0.146446609 0.923879533
      vertex -0.270598050 -0.270598050 0.923879533
    endloop
  endfacet
  facet normal -0.110426676 -0.165265200 0.980047633
    outer loop
      vertex 0.000000000 0.000000000 1.000000000
      vertex -0.270598050 -0.270598050 0.923879533
      vertex -0.146446609 -0.353553391 0.923879533
    endloop
  endfacet
  facet normal -0.038776692 -0.194943595 0.980047633
    outer loop
      vertex 0.000000000 0.000000000 1.000000000
      vertex -0.146446609 -0.353553391 0.923879533
      vertex 0.000000000 -0.382683432 0.923879533
    endloop
  endfacet
  facet normal 0.038776692 -0.194943595 0.980047633
    outer loop
      vertex 0.000000000 0.000000000 1.000000000
      vertex 0.000000000 -0.382683432 0.923879533
      vertex 0.146446609 -0.353553391 0.923879533
    endloop
  endfacet
  facet normal 0.110426676 -0.165265200 0.980047633
    outer loop
      vertex 0.000000000 0.000000000 1.000000000
      vertex 0.146446609 -0.353553391 0.923879533
      vertex 0.270598050 -0.270598050 0.923879533
    endloop
  endfacet
  facet normal 0.165265200 -0.110426676 0.980047633
    outer loop
      vertex 0.000000000 0.000000000 1.000000000
      vertex 0.270598050 -0.270598050 0.923879533
      vertex 0.353553391 -0.146446609 0.923879533
    endloop
  endfacet
  facet normal 0.194943595 -0.038776692 0.980047633
    outer loop
      vertex 0.000000000 0.000000000 1.000000000
      vertex 0.353553391 -0.146446609 0.923879533
      vertex 0.382683432 0.000000000 0.923879533
    endloop
  endfacet
  facet normal 0.552208566 0.109841113 0.826438522
    outer loop
      vertex 0.382683432 0.000000000 0.923879533
      vertex 0.707106781 0.000000000 0.707106781
      vertex 0.653281482 0.270598050 0.707106781
    endloop
  endfacet
  facet normal 0.552208566 0.109841113 0.826438522
    outer loop
      vertex 0.382683432 0.000000000 0.923879533
      vertex 0.653281482 0.270598050 0.707106781
      vertex 0.353553391 0.146446609 0.923879533
    endloop
  endfacet
  facet normal 0.468139817 0.312801025 0.826438522
    outer loop
      vertex 0.353553391 0.146446609 0.923879533
      vertex 0.653281482 0.270598050 0.707106781
      vertex 0.500000000 0.500000000 0.707106781
    endloop
  endfacet
  facet normal 0.468139817 0.312801025 0.826438522
    outer loop
      vertex 0.353553391 0.146446609 0.923879533
      vertex 0.500000000 0.500000000 0.707106781
      vertex 0.270598050 0.270598050 0.923879533
    endloop
  endfacet
  facet normal 0.312801025 0.468139817 0.826438522
    outer loop
      vertex 0.270598050 0.270598050 0.923879533
      vertex 0.500000000 0.500000000 0.707106781
      vertex 0.270598050 0.653281482 0.707106781
    endloop
  endfacet
  facet normal 0.312801025 0.468139817 0.826438522
    outer loop
      vertex 0.270598050 0.270598050 0.923879533
      vertex 0.270598050 0.653281482 0.707106781
      vertex 0.146446609 0.353553391 0.923879533
    endloop
  endfacet
  facet normal 0.109841113 0.552208566 0.826438522
    outer loop
      vertex 0.146446609 0.353553391 0.923879533
      vertex 0.270598050 0.653281482 0.707106781
      vertex 0.000000000 0.707106781 0.707106781
    endloop
  endfacet
  facet normal 0.109841113 0.552208566 0.826438522
    outer loop
      vertex 0.146446609 0.353553391 0.923879533
      vertex 0.000000000 0.707106781 0.707106781
      vertex 0.000000000 0.382683432 0.923879533
    endloop
  endfacet
  facet normal -0.109841113 0.552208566 0.826438522
    outer loop
      vertex 0.000000000 0.382683432 0.923879533
      vertex 0.000000000 0.707106781 0.707106781
      vertex -0.270598050 0.653281482 0.707106781
    endloop
  endfacet
  facet normal -0.109841113 0.552208566 0.826438522
    outer loop
      vertex 0.000000000 0.382683432 0.923879533
      vertex -0.270598050 0.653281482 0.707106781
      vertex -0.146446609 0.353553391 0.923879533
    endloop
  endfacet
  facet normal -0.312801025 0.468139817 0.826438522
    outer loop
      vertex -0.146446609 0.353553391 0.923879533
      vertex -0.270598050 0.653281482 0.707106781
      vertex -0.500000000 0.500000000 0.707106781
    endloop
  endfacet
  facet normal -0.312801025 0.468139817 0.826438522
    outer loop
      vertex -0.146446609 0.353553391 0.923879533
      vertex -0.500000000 0.500000000 0.707106781
      vertex -0.270598050 0.270598050 0.923879533
    endloop
  endfacet
  facet normal -0.468139817 0.312801025 0.826438522
    outer loop
      vertex -0.270598050 0.270598050 0.923879533
      vertex -0.500000000 0.500000000 0.707106781
      vertex -0.653281482 0.270598050 0.707106781
    endloop
  endfacet
  facet normal -0.468139817 0.312801025 0.826438522
    outer loop
      vertex -0.270598050 0.270598050 0.923879533
      vertex -0.653281482 0.270598050 0.707106781
      vertex -0.353553391 0.146446609 0.923879533
    endloop
  endfacet
  facet normal -0.552208566 0.109841113 0.826438522
    outer loop
      vertex -0.353553391 0.146446609 0.923879533
      vertex -0.653281482 0.270598050 0.707106781
      vertex -0.707106781 0.000000000 0.707106781
    endloop
  endfacet
  facet normal -0.552208566 0.109841113 0.826438522
    outer loop
      vertex -0.353553391 0.146446609 0.923879533
      vertex -0.707106781 0.000000000 0.707106781
      vertex -0.382683432 0.000000000 0.923879533
    endloop
  endfacet
  facet normal -0.552208566 -0.109841113 0.826438522
    outer loop
      vertex -0.382683432 0.000000000 0.923879533
      vertex -0.707106781 0.000000000 0.707106781
      vertex -0.653281482 -0.270598050 0.707106781
    endloop
  endfacet
  facet normal -0.552208566 -0.109841113 0.826438522
    outer loop
      vertex -0.382683432 0.000000000 0.923879533
      vertex -0.653281482 -0.270598050 0.707106781
      vertex -0.353553391 -0.146446609 0.923879533
    endloop
  endfacet
  facet normal -0.468139817 -0.312801025 0.826438522
    outer loop
      vertex -0.353553391 -0.146446609 0.923879533
      vertex -0.653281482 -0.270598050 0.707106781
      vertex -0.500000000 -0.500000000 0.707106781
    endloop
  endfacet
  facet normal -0.468139817 -0.312801025 0.826438522
    outer loop
      vertex -0.353553391 -0.146446609 0.923879533
      vertex -0.500000000 -0.500000000 0.707106781
      vertex -0.270598050 -0.270598050 0.923879533
    endloop
  endfacet
  facet normal -0.312801025 -0.468139817 0.826438522
    outer loop
      vertex -0.270598050 -0.270598050 0.923879533
      vertex -0.500000000 -0.500000000 0.707106781
      vertex -0.270598050 -0.653281482 0.707106781
    endloop
  endfacet
  facet normal -0.312801025 -0.468139817 0.826438522
    outer loop
      vertex -0.270598050 -0.270598050 0.923879533
      vertex -0.270598050 -0.653281482 0.707106781
      vertex -0.146446609 -0.353553391 0.923879533
    endloop
  endfacet
  facet normal -0.109841113 -0.552208566 0.826438522
    outer loop
      vertex -0.146446609 -0.353553391 0.923879533
      vertex -0.270598050 -0.653281482 0.707106781
      vertex 0.000000000 -0.707106781 0.707106781
    endloop
  endfacet
  facet normal -0.109841113 -0.552208566 0.826438522
    outer loop
      vertex -0.146446609 -0.353553391 0.923879533
      vertex 0.000000000 -0.707106781 0.707106781
      vertex 0.000000000 -0.382683432 0.923879533
    endloop
  endfacet
  facet normal 0.109841113 -0.552208566 0.826438522
    outer loop
      vertex 0.000000000 -0.382683432 0.923879533
      vertex 0.000000000 -0.707106781 0.707106781
      vertex 0.270598050 -0.653281482 0.707106781
    endloop
  endfacet
  facet normal 0.109841113 -0.552208566 0.826438522
    outer loop
      vertex 0.000000000 -0.382683432 0.923879533
      vertex 0.270598050 -0.653281482 0.707106781
      vertex 0.146446609 -0.353553391 0.923879533
    endloop
  endfacet
  facet normal 0.312801025 -0.468139817 0.826438522
    outer loop
      vertex 0.146446609 -0.353553391 0.923879533
      vertex 0.270598050 -0.653281482 0.707106781
      vertex 0.500000000 -0.500000000 0.707106781
    endloop
  endfacet
  facet normal 0.312801025 -0.468139817 0.826438522
    outer loop
      vertex 0.146446609 -0.353553391 0.923879533
      vertex 0.500000000 -0.500000000 0.707106781
      vertex 0.270598050 -0.270598050 0.923879533
    endloop
  endfacet
  facet normal 0.468139817 -0.312801025 0.826438522
    outer loop
      vertex 0.270598050 -0.270598050 0.923879533
      vertex 0.500000000 -0.500000000 0.707106781
      vertex 0.653281482 -0.270598050 0.707106781
    endloop
  endfacet
  facet normal 0.468139817 -0.312801025 0.826438522
    outer loop
      vertex 0.270598050 -0.270598050 0.923879533
      vertex 0.653281482 -0.270598050 0.707106781
      vertex 0.353553391 -0.146446609 0.923879533
    endloop
  endfacet
  facet normal 0.552208566 -0.109841113 0.826438522
    outer loop
      vertex 0.353553391 -0.146446609 0.923879533
      vertex 0.653281482 -0.270598050 0.707106781
      vertex 0.707106781 0.000000000 0.707106781
    endloop
  endfacet
  facet normal 0.552208566 -0.109841113 0.826438522
    outer loop
      vertex 0.353553391 -0.146446609 0.923879533
      vertex 0.707106781 0.000000000 0.707106781
      vertex 0.382683432 0.000000000 0.923879533
    endloop
  endfacet
  facet normal 0.820325824 0.163172952 0.548124192
    outer loop
      vertex 0.707106781 0.000000000 0.707106781
      vertex 0.923879533 0.000000000 0.382683432
      vertex 0.853553391 0.353553391 0.382683432
    endloop
  endfacet
  facet normal 0.820325824 0.163172952 0.548124192
    outer loop
      vertex 0.707106781 0.000000000 0.707106781
      vertex 0.853553391 0.353553391 0.382683432
      vertex 0.653281482 0.270598050 0.707106781
    endloop
  endfacet
  facet normal 0.695438654 0.464677252 0.548124192
    outer loop
      vertex 0.653281482 0.270598050 0.707106781
      vertex 0.853553391 0.353553391 0.382683432
      vertex 0.653281482 0.653281482 0.382683432
    endloop
  endfacet
  facet normal 0.695438654 0.464677252 0.548124192
    outer loop
      vertex 0.653281482 0.270598050 0.707106781
      vertex 0.653281482 0.653281482 0.382683432
      vertex 0.500000000 0.500000000 0.707106781
    endloop
  endfacet
  facet normal 0.464677252 0.695438654 0.548124192
    outer loop
      vertex 0.500000000 0.500000000 0.707106781
      vertex 0.653281482 0.653281482 0.382683432
      vertex 0.353553391 0.853553391 0.382683432
    endloop
  endfacet
  facet normal 0.464677252 0.695438654 0.548124192
    outer loop
      vertex 0.500000000 0.500000000 0.707106781
      vertex 0.353553391 0.853553391 0.382683432
      vertex 0.270598050 0.653281482 0.707106781
    endloop
  endfacet
  facet normal 0.163172952 0.820325824 0.548124192
    outer loop
      vertex 0.270598050 0.653281482 0.707106781
      vertex 0.353553391 0.853553391 0.382683432
      vertex 0.000000000 0.923879533 0.382683432
    endloop
  endfacet
  facet normal 0.163172952 0.820325824 0.548124192
    outer loop
      vertex 0.270598050 0.653281482 0.707106781
      vertex 0.000000000 0.923879533 0.382683432
      vertex 0.000000000 0.707106781 0.707106781
    endloop
  endfacet
  facet normal -0.163172952 0.820325824 0.548124192
    outer loop
      vertex 0.000000000 0.707106781 0.707106781
      vertex 0.000000000 0.923879533 0.382683432
      vertex -0.353553391 0.853553391 0.382683432
    endloop
  endfacet
  facet normal -0.163172952 0.820325824 0.548124192
    outer loop
      vertex 0.000000000 0.707106781 0.707106781
      vertex -0.353553391 0.853553391 0.382683432
      vertex -0.270598050 0.653281482 0.707106781
    endloop
  endfacet
  facet normal -0.464677252 0.695438654 0.548124192
    outer loop
      vertex -0.270598050 0.653281482 0.707106781
      vertex -0.353553391 0.853553391 0.382683432
      vertex -0.653281482 0.653281482 0.382683432
    endloop
  endfacet
  facet normal -0.464677252 0.695438654 0.548124192
    outer loop
      vertex -0.270598050 0.653281482 0.707106781
      vertex -0.653281482 0.653281482 0.382683432
      vertex -0.500000000 0.500000000 0.707106781
    endloop
  endfacet
  facet normal -0.695438654 0.464677252 0.548124192
    outer loop
      vertex -0.500000000 0.500000000 0.707106781
      vertex -0.653281482 0.653281482 0.382683432
      vertex -0.853553391 0.353553391 0.382683432
    endloop
  endfacet
  facet normal -0.695438654 0.464677252 0.548124192
    outer loop
      vertex -0.500000000 0.500000000 0.707106781
      vertex -0.853553391 0.353553391 0.382683432
      vertex -0.653281482 0.270598050 0.707106781
    endloop
  endfacet
  facet normal -0.820325824 0.163172952 0.548124192
    outer loop
      vertex -0.653281482 0.270598050 0.707106781
      vertex -0.853553391 0.353553391 0.382683432
      vertex -0.923879533 0.000000000 0.382683432
    endloop
  endfacet
  facet normal -0.820325824 0.163172952 0.548124192
    outer loop
      vertex -0.653281482 0.270598050 0.707106781
      vertex -0.923879533 0.000000000 0.382683432
      vertex -0.707106781 0.000000000 0.707106781
    endloop
  endfacet
  facet normal -0.820325824 -0.163172952 0.548124192
    outer loop
      vertex -0.707106781 0.000000000 0.707106781
      vertex -0.923879533 0.000000000 0.382683432
      vertex -0.853553391 -0.353553391 0.382683432
    endloop
  endfacet
  facet normal -0.820325824 -0.163172952 0.548124192
    outer loop
      vertex -0.707106781 0.000000000 0.707106781
      vertex -0.853553391 -0.353553391 0.382683432
      vertex -0.653281482 -0.270598050 0.707106781
    endloop
  endfacet
  facet normal -0.695438654 -0.464677252 0.548124192
    outer loop
      vertex -0.653281482 -0.270598050 0.707106781
      vertex -0.853553391 -0.353553391 0.382683432
      vertex -0.653281482 -0.653281482 0.382683432
    endloop
  endfacet
  facet normal -0.695438654 -0.464677252 0.548124192
    outer loop
      vertex -0.653281482 -0.270598050 0.707106781
      vertex -0.653281482 -0.653281482 0.382683432
      vertex -0.500000000 -0.500000000 0.707106781
    endloop
  endfacet
  facet normal -0.464677252 -0.695438654 0.548124192
    outer loop
      vertex -0.500000000 -0.500000000 0.707106781
      vertex -0.653281482 -0.653281482 0.382683432
      vertex -0.353553391 -0.853553391 0.382683432
    endloop
  endfacet
  facet normal -0.464677252 -0.695438654 0.548124192
    outer loop
      vertex -0.500000000 -0.500000000 0.707106781
      vertex -0.353553391 -0.853553391 0.382683432
      vertex -0.270598050 -0.653281482 0.707106781
    endloop
  endfacet
  facet normal -0.163172952 -0.820325824 0.548124192
    outer loop
      vertex -0.270598050 -0.653281482 0.707106781
      vertex -0.353553391 -0.853553391 0.382683432
      vertex 0.000000000 -0.923879533 0.382683432
    endloop
  endfacet
  facet normal -0.163172952 -0.820325824 0.548124192
    outer loop
      vertex -0.270598050 -0.653281482 0.707106781
      vertex 0.000000000 -0.923879533 0.382683432
      vertex 0.000000000 -0.707106781 0.707106781
    endloop
  endfacet
  facet normal 0.163172952 -0.820325824 0.548124192
    outer loop
      vertex 0.000000000 -0.707106781 0.707106781
      vertex 0.000000000 -0.923879533 0.382683432
      vertex 0.353553391 -0.853553391 0.382683432
    endloop
  endfacet
  facet normal 0.163172952 -0.820325824 0.548124192
    outer loop
      vertex 0.000000000 -0.707106781 0.707106781
      vertex 0.353553391 -0.853553391 0.382683432
      vertex 0.270598050 -0.653281482 0.707106781
    endloop
  endfacet
  facet normal 0.464677252 -0.695438654 0.548124192
    outer loop
      vertex 0.270598050 -0.653281482 0.707106781
      vertex 0.353553391 -0.853553391 0.382683432
      vertex 0.653281482 -0.653281482 0.382683432
    endloop
  endfacet
  facet normal 0.464677252 -0.695438654 0.548124192
    outer loop
      vertex 0.270598050 -0.653281482 0.707106781
      vertex 0.653281482 -0.653281482 0.382683432
      vertex 0.500000000 -0.500000000 0.707106781
    endloop
  endfacet
  facet normal 0.695438654 -0.464677252 0.548124192
    outer loop
      vertex 0.500000000 -0.500000000 0.707106781
      vertex 0.653281482 -0.653281482 0.382683432
      vertex 0.853553391 -0.353553391 0.382683432
    endloop
  endfacet
  facet normal 0.695438654 -0.464677252 0.548124192
    outer loop
      vertex 0.500000000 -0.500000000 0.707106781
      vertex 0.853553391 -0.353553391 0.382683432
      vertex 0.653281482 -0.270598050 0.707106781
    endloop
  endfacet
  facet normal 0.820325824 -0.163172952 0.548124192
    outer loop
      vertex 0.653281482 -0.270598050 0.707106781
      vertex 0.853553391 -0.353553391 0.382683432
      vertex 0.923879533 0.000000000 0.382683432
    endloop
  endfacet
  facet normal 0.820325824 -0.163172952 0.548124192
    outer loop
      vertex 0.653281482 -0.270598050 0.707106781
      vertex 0.923879533 0.000000000 0.382683432
      vertex 0.707106781 0.000000000 0.707106781
    endloop
  endfacet
  facet normal 0.962637248 0.191480454 0.191480454
    outer loop
      vertex 0.923879533 0.000000000 0.382683432
      vertex 1.000000000 0.000000000 0.000000000
      vertex 0.923879533 0.382683432 0.000000000
    endloop
  endfacet
  facet normal 0.962637248 0.191480454 0.191480454
    outer loop
      vertex 0.923879533 0.000000000 0.382683432
      vertex 0.923879533 0.382683432 0.000000000
      vertex 0.853553391 0.353553391 0.382683432
    endloop
  endfacet
  facet normal 0.816084453 0.545290199 0.191480454
    outer loop
      vertex 0.853553391 0.353553391 0.382683432
      vertex 0.923879533 0.382683432 0.000000000
      vertex 0.707106781 0.707106781 0.000000000
    endloop
  endfacet
  facet normal 0.816084453 0.545290199 0.191480454
    outer loop
      vertex 0.853553391 0.353553391 0.382683432
      vertex 0.707106781 0.707106781 0.000000000
      vertex 0.653281482 0.653281482 0.382683432
    endloop
  endfacet
  facet normal 0.545290199 0.816084453 0.191480454
    outer loop
      vertex 0.653281482 0.653281482 0.382683432
      vertex 0.707106781 0.707106781 0.000000000
      vertex 0.382683432 0.923879533 0.000000000
    endloop
  endfacet
  facet normal 0.545290199 0.816084453 0.191480454
    outer loop
      vertex 0.653281482 0.653281482 0.382683432
      vertex 0.382683432 0.923879533 0.000000000
      vertex 0.353553391 0.853553391 0.382683432
    endloop
  endfacet
  facet normal 0.191480454 0.962637248 0.191480454
    outer loop
      vertex 0.353553391 0.853553391 0.382683432
      vertex 0.382683432 0.923879533 0.000000000
      vertex 0.000000000 1.000000000 0.000000000
    endloop
  endfacet
  facet normal 0.191480454 0.962637248 0.191480454
    outer loop
      vertex 0.353553391 0.853553391 0.382683432
      vertex 0.000000000 1.000000000 0.000000000
      vertex 0.000000000 0.923879533 0.382683432
    endloop
  endfacet
  facet normal -0.191480454 0.962637248 0.191480454
    outer loop
      vertex 0.000000000 0.923879533 0.382683432
      vertex 0.000000000 1.000000000 0.000000000
      vertex -0.382683432 0.923879533 0.000000000
    endloop
  endfacet
  facet normal -0.191480454 0.962637248 0.191480454
    outer loop
      vertex 0.000000000 0.923879533 0.382683432
      vertex -0.382683432 0.923879533 0.000000000
      vertex -0.353553391 0.853553391 0.382683432
    endloop
  endfacet
  facet normal -0.545290199 0.816084453 0.191480454
    outer loop
      vertex -0.353553391 0.853553391 0.382683432
      vertex -0.382683432 0.923879533 0.000000000
      vertex -0.707106781 0.707106781 0.000000000
    endloop
  endfacet
  facet normal -0.545290199 0.816084453 0.191480454
    outer loop
      vertex -0.353553391 0.853553391 0.382683432
      vertex -0.707106781 0.707106781 0.000000000
      vertex -0.653281482 0.653281482 0.382683432
    endloop
  endfacet
  facet normal -0.816084453 0.545290199 0.191480454
    outer loop
      vertex -0.653281482 0.653281482 0.382683432
      vertex -0.707106781 0.707106781 0.000000000
      vertex -0.923879533 0.382683432 0.000000000
    endloop
  endfacet
  facet normal -0.816084453 0.545290199 0.191480454
    outer loop
      vertex -0.653281482 0.653281482 0.382683432
      vertex -0.923879533 0.382683432 0.000000000
      vertex -0.853553391 0.353553391 0.382683432
    endloop
  endfacet
  facet normal -0.962637248 0.191480454 0.191480454
    outer loop
      vertex -0.853553391 0.353553391 0.382683432
      vertex -0.923879533 0.382683432 0.000000000
      vertex -1.000000000 0.000000000 0.000000000
    endloop
  endfacet
  facet normal -0.962637248 0.191480454 0.191480454
    outer loop
      vertex -0.853553391 0.353553391 0.382683432
      vertex -1.000000000 0.000000000 0.000000000
      vertex -0.923879533 0.000000000 0.382683432
    endloop
  endfacet
  facet normal -0.962637248 -0.191480454 0.191480454
    outer loop
      vertex -0.923879533 0.000000000 0.382683432
      vertex -1.000000000 0.000000000 0.000000000
      vertex -0.923879533 -0.382683432 0.000000000
    endloop
  endfacet
  facet normal -0.962637248 -0.191480454 0.191480454
    outer loop
      vertex -0.923879533 0.000000000 0.382683432
      vertex -0.923879533 -0.382683432 0.000000000
      vertex -0.853553391 -0.353553391 0.382683432
    endloop
  endfacet
  facet normal -0.816084453 -0.545290199 0.191480454
    outer loop
      vertex -0.853553391 -0.353553391 0.382683432
      vertex -0.923879533 -0.382683432 0.000000000
      vertex -0.707106781 -0.707106781 0.000000000
    endloop
  endfacet
  facet normal -0.816084453 -0.545290199 0.191480454
    outer loop
      vertex -0.853553391 -0.353553391 0.382683432
      vertex -0.707106781 -0.707106781 0.000000000
      vertex -0.653281482 -0.653281482 0.382683432
    endloop
  endfacet
  facet normal -0.545290199 -0.816084453 0.191480454
    outer loop
      vertex -0.653281482 -0.653281482 0.382683432
      vertex -0.707106781 -0.707106781 0.000000000
      vertex -0.382683432 -0.923879533 0.000000000
    endloop
  endfacet
  facet normal -0.545290199 -0.816084453 0.191480454
    outer loop
      vertex -0.653281482 -0.653281482 0.382683432
      vertex -0.382683432 -0.923879533 0.000000000
      vertex -0.353553391 -0.853553391 0.382683432
    endloop
  endfacet
  facet normal -0.191480454 -0.962637248 0.191480454
    outer loop
      vertex -0.353553391 -0.853553391 0.382683432
      vertex -0.382683432 -0.923879533 0.000000000
      vertex 0.000000000 -1.000000000 0.000000000
    endloop
  endfacet
  facet normal -0.191480454 -0.962637248 0.191480454
    outer loop
      vertex -0.353553391 -0.853553391 0.382683432
      vertex 0.000000000 -1.000000000 0.000000000
      vertex 0.000000000 -0.923879533 0.382683432
    endloop
  endfacet
  facet normal 0.191480454 -0.962637248 0.191480454
    outer loop
      vertex 0.000000000 -0.923879533 0.382683432
      vertex 0.000000000 -1.000000000 0.000000000
      vertex 0.382683432 -0.923879533 0.000000000
    endloop
  endfacet
  facet normal 0.191480454 -0.962637248 0.191480454
    outer loop
      vertex 0.000000000 -0.923879533 0.382683432
      vertex 0.382683432 -0.923879533 0.000000000
      vertex 0.353553391 -0.853553391 0.382683432
    endloop
  endfacet
  facet normal 0.545290199 -0.816084453 0.191480454
    outer loop
      vertex 0.353553391 -0.853553391 0.382683432
      vertex 0.382683432 -0.923879533 0.000000000
      vertex 0.707106781 -0.707106781 0.000000000
    endloop
  endfacet
  facet normal 0.545290199 -0.816084453 0.191480454
    outer loop
      vertex 0.353553391 -0.853553391 0.382683432
      vertex 0.707106781 -0.707106781 0.000000000
      vertex 0.653281482 -0.653281482 0.382683432
    endloop
  endfacet
  facet normal 0.816084453 -0.545290199 0.191480454
    outer loop
      vertex 0.653281482 -0.653281482 0.382683432
      vertex 0.707106781 -0.707106781 0.000000000
      vertex 0.923879533 -0.382683432 0.000000000
    endloop
  endfacet
  facet normal 0.816084453 -0.545290199 0.191480454
    outer loop
      vertex 0.653281482 -0.653281482 0.382683432
      vertex 0.923879533 -0.382683432 0.000000000
      vertex 0.853553391 -0.353553391 0.382683432
    endloop
  endfacet
  facet normal 0.962637248 -0.191480454 0.191480454
    outer loop
      vertex 0.853553391 -0.353553391 0.382683432
      vertex 0.923879533 -0.382683432 0.000000000
      vertex 1.000000000 0.000000000 0.000000000
    endloop
  endfacet
  facet normal 0.962637248 -0.191480454 0.191480454
    outer loop
      vertex 0.853553391 -0.353553391 0.382683432
      vertex 1.000000000 0.000000000 0.000000000
      vertex 0.923879533 0.000000000 0.382683432
    endloop
  endfacet
  facet normal 0.962637248 0.191480454 -0.191480454
    outer loop
      vertex 1.000000000 0.000000000 0.000000000
      vertex 0.923879533 0.000000000 -0.382683432
      vertex 0.853553391 0.353553391 -0.382683432
    endloop
  endfacet
  facet normal 0.962637248 0.191480454 -0.191480454
    outer loop
      vertex 1.000000000 0.000000000 0.000000000
      vertex 0.853553391 0.353553391 -0.382683432
      vertex 0.923879533 0.382683432 0.000000000
    endloop
  endfacet
  facet normal 0.816084453 0.545290199 -0.191480454
    outer loop
      vertex 0.923879533 0.382683432 0.000000000
      vertex 0.853553391 0.353553391 -0.382683432
      vertex 0.653281482 0.653281482 -0.382683432
    endloop
  endfacet
  facet normal 0.816084453 0.545290199 -0.191480454
    outer loop
      vertex 0.923879533 0.382683432 0.000000000
      vertex 0.653281482 0.653281482 -0.382683432
      vertex 0.707106781 0.707106781 0.000000000
    endloop
  endfacet
  facet normal 0.545290199 0.816084453 -0.191480454
    outer loop
      vertex 0.707106781 0.707106781 0.000000000
      vertex 0.653281482 0.653281482 -0.382683432
      vertex 0.353553391 0.853553391 -0.382683432
    endloop
  endfacet
  facet normal 0.545290199 0.816084453 -0.191480454
    outer loop
      vertex 0.707106781 0.707106781 0.000000000
      vertex 0.353553391 0.853553391 -0.382683432
      vertex 0.382683432 0.923879533 0.000000000
    endloop
  endfacet
  facet normal 0.191480454 0.962637248 -0.191480454
    outer loop
      vertex 0.382683432 0.923879533 0.000000000
      vertex 0.353553391 0.853553391 -0.382683432
      vertex 0.000000000 0.923879533 -0.382683432
    endloop
  endfacet
  facet normal 0.191480454 0.962637248 -0.191480454
    outer loop
      vertex 0.382683432 0.923879533 0.000000000
      vertex 0.000000000 0.923879533 -0.382683432
      vertex 0.000000000 1.000000000 0.000000000
    endloop
  endfacet
  facet normal -0.191480454 0.962637248 -0.191480454
    outer loop
      vertex 0.000000000 1.000000000 0.000000000
      vertex 0.000000000 0.923879533 -0.382683432
      vertex -0.353553391 0.853553391 -0.382683432
    endloop
  endfacet
  facet normal -0.191480454 0.962637248 -0.191480454
    outer loop
      vertex 0.000000000 1.000000000 0.000000000
      vertex -0.353553391 0.853553391 -0.382683432
      vertex -0.382683432 0.923879533 0.000000000
    endloop
  endfacet
  facet normal -0.545290199 0.816084453 -0.191480454
    outer loop
      vertex -0.382683432 0.923879533 0.000000000
      vertex -0.353553391 0.853553391 -0.382683432
      vertex -0.653281482 0.653281482 -0.382683432
    endloop
  endfacet
  facet normal -0.545290199 0.816084453 -0.191480454
    outer loop
      vertex -0.382683432 0.923879533 0.000000000
      vertex -0.653281482 0.653281482 -0.382683432
      vertex -0.707106781 0.707106781 0.000000000
    endloop
  endfacet
  facet normal -0.816084453 0.545290199 -0.191480454
    outer loop
      vertex -0.707106781 0.707106781 0.000000000
      vertex -0.653281482 0.653281482 -0.382683432
      vertex -0.853553391 0.353553391 -0.382683432
    endloop
  endfacet
  facet normal -0.816084453 0.545290199 -0.191480454
    outer loop
      vertex -0.707106781 0.707106781 0.000000000
      vertex -0.853553391 0.353553391 -0.382683432
      vertex -0.923879533 0.382683432 0.000000000
    endloop
  endfacet
  facet normal -0.962637248 0.191480454 -0.191480454
    outer loop
      vertex -0.923879533 0.382683432 0.000000000
      vertex -0.853553391 0.353553391 -0.382683432
      vertex -0.923879533 0.000000000 -0.382683432
    endloop
  endfacet
  facet normal -0.962637248 0.191480454 -0.191480454
    outer loop
      vertex -0.923879533 0.382683432 0.000000000
      vertex -0.923879533 0.000000000 -0.382683432
      vertex -1.000000000 0.000000000 0.000000000
    endloop
  endfacet
  facet normal -0.962637248 -0.191480454 -0.191480454
    outer loop
      vertex -1.000000000 0.000000000 0.000000000
      vertex -0.923879533 0.000000000 -0.382683432
      vertex -0.853553391 -0.353553391 -0.382683432
    endloop
  endfacet
  facet normal -0.962637248 -0.191480454 -0.191480454
    outer loop
      vertex -1.000000000 0.000000000 0.000000000
      vertex -0.853553391 -0.353553391 -0.382683432
      vertex -0.923879533 -0.382683432 0.000000000
    endloop
  endfacet
  facet normal -0.816084453 -0.545290199 -0.191480454
    outer loop
      vertex -0.923879533 -0.382683432 0.000000000
      vertex -0.853553391 -0.353553391 -0.382683432
      vertex -0.653281482 -0.653281482 -0.382683432
    endloop
  endfacet
  facet normal -0.816084453 -0.545290199 -0.191480454
    outer loop
      vertex -0.923879533 -0.382683432 0.000000000
      vertex -0.653281482 -0.653281482 -0.382683432
      vertex -0.707106781 -0.707106781 0.000000000
    endloop
  endfacet
  facet normal -0.545290199 -0.816084453 -0.191480454
    outer loop
      vertex -0.707106781 -0.707106781 0.000000000
      vertex -0.653281482 -0.653281482 -0.382683432
      vertex -0.353553391 -0.853553391 -0.382683432
    endloop
  endfacet
  facet normal -0.545290199 -0.816084453 -0.191480454
    outer loop
      vertex -0.707106781 -0.707106781 0.000000000
      vertex -0.353553391 -0.853553391 -0.382683432
      vertex -0.382683432 -0.923879533 0.000000000
    endloop
  endfacet
  facet normal -0.191480454 -0.962637248 -0.191480454
    outer loop
      vertex -0.382683432 -0.923879533 0.000000000
      vertex -0.353553391 -0.853553391 -0.382683432
      vertex 0.000000000 -0.923879533 -0.382683432
    endloop
  endfacet
  facet normal -0.191480454 -0.962637248 -0.191480454
    outer loop
      vertex -0.382683432 -0.923879533 0.000000000
      vertex 0.000000000 -0.923879533 -0.382683432
      vertex 0.000000000 -1.000000000 0.000000000
    endloop
  endfacet
  facet normal 0.191480454 -0.962637248 -0.191480454
    outer loop
      vertex 0.000000000 -1.000000000 0.000000000
      vertex 0.000000000 -0.923879533 -0.382683432
      vertex 0.353553391 -0.853553391 -0.382683432
    endloop
  endfacet
  facet normal 0.191480454 -0.962637248 -0.191480454
    outer loop
      vertex 0.000000000 -1.000000000 0.000000000
      vertex 0.353553391 -0.853553391 -0.382683432
      vertex 0.382683432 -0.923879533 0.000000000
    endloop
  endfacet
  facet normal 0.545290199 -0.816084453 -0.191480454
    outer loop
      vertex 0.382683432 -0.923879533 0.000000000
      vertex 0.353553391 -0.853553391 -0.382683432
      vertex 0.653281482 -0.653281482 -0.382683432
    endloop
  endfacet
  facet normal 0.545290199 -0.816084453 -0.191480454
    outer loop
      vertex 0.382683432 -0.923879533 0.000000000
      vertex 0.653281482 -0.653281482 -0.382683432
      vertex 0.707106781 -0.707106781 0.000000000
    endloop
  endfacet
  facet normal 0.816084453 -0.545290199 -0.191480454
    outer loop
      vertex 0.707106781 -0.707106781 0.000000000
      vertex 0.653281482 -0.653281482 -0.382683432
      vertex 0.853553391 -0.353553391 -0.382683432
    endloop
  endfacet
  facet normal 0.816084453 -0.545290199 -0.191480454
    outer loop
      vertex 0.707106781 -0.707106781 0.000000000
      vertex 0.853553391 -0.353553391 -0.382683432
      vertex 0.923879533 -0.382683432 0.000000000
    endloop
  endfacet
  facet normal 0.962637248 -0.191480454 -0.191480454
    outer loop
      vertex 0.923879533 -0.382683432 0.000000000
      vertex 0.853553391 -0.353553391 -0.382683432
      vertex 0.923879533 0.000000000 -0.382683432
    endloop
  endfacet
  facet normal 0.962637248 -0.191480454 -0.191480454
    outer loop
      vertex 0.923879533 -0.382683432 0.000000000
      vertex 0.923879533 0.000000000 -0.382683432
      vertex 1.000000000 0.000000000 0.000000000
    endloop
  endfacet
  facet normal 0.820325824 0.163172952 -0.548124192
    outer loop
      vertex 0.923879533 0.000000000 -0.382683432
      vertex 0.707106781 0.000000000 -0.707106781
      vertex 0.653281482 0.270598050 -0.707106781
    endloop
  endfacet
  facet normal 0.820325824 0.163172952 -0.548124192
    outer loop
      vertex 0.923879533 0.000000000 -0.382683432
      vertex 0.653281482 0.270598050 -0.707106781
      vertex 0.853553391 0.353553391 -0.382683432
    endloop
  endfacet
  facet normal 0.695438654 0.464677252 -0.548124192
    outer loop
      vertex 0.853553391 0.353553391 -0.382683432
      vertex 0.653281482 0.270598050 -0.707106781
      vertex 0.500000000 0.500000000 -0.707106781
    endloop
  endfacet
  facet normal 0.695438654 0.464677252 -0.548124192
    outer loop
      vertex 0.853553391 0.353553391 -0.382683432
      vertex 0.500000000 0.500000000 -0.707106781
      vertex 0.653281482 0.653281482 -0.382683432
    endloop
  endfacet
  facet normal 0.464677252 0.695438654 -0.548124192
    outer loop
      vertex 0.653281482 0.653281482 -0.382683432
      vertex 0.500000000 0.500000000 -0.707106781
      vertex 0.270598050 0.653281482 -0.707106781
    endloop
  endfacet
  facet normal 0.464677252 0.695438654 -0.548124192
    outer loop
      vertex 0.653281482 0.653281482 -0.382683432
      vertex 0.270598050 0.653281482 -0.707106781
      vertex 0.353553391 0.853553391 -0.382683432
    endloop
  endfacet
  facet normal 0.163172952 0.820325824 -0.548124192
    outer loop
      vertex 0.353553391 0.853553391 -0.382683432
      vertex 0.270598050 0.653281482 -0.707106781
      vertex 0.000000000 0.707106781 -0.707106781
    endloop
  endfacet
  facet normal 0.163172952 0.820325824 -0.548124192
    outer loop
      vertex 0.353553391 0.853553391 -0.382683432
      vertex 0.000000000 0.707106781 -0.707106781
      vertex 0.000000000 0.923879533 -0.382683432
    endloop
  endfacet
  facet normal -0.163172952 0.820325824 -0.548124192
    outer loop
      vertex 0.000000000 0.923879533 -0.382683432
      vertex 0.000000000 0.707106781 -0.707106781
      vertex -0.270598050 0.653281482 -0.707106781
    endloop
  endfacet
  facet normal -0.163172952 0.820325824 -0.548124192
    outer loop
      vertex 0.000000000 0.923879533 -0.382683432
      vertex -0.270598050 0.653281482 -0.707106781
      vertex -0.353553391 0.853553391 -0.382683432
    endloop
  endfacet
  facet normal -0.464677252 0.695438654 -0.548124192
    outer loop
      vertex -0.353553391 0.853553391 -0.382683432
      vertex -0.270598050 0.653281482 -0.707106781
      vertex -0.500000000 0.500000000 -0.707106781
    endloop
  endfacet
  facet normal -0.464677252 0.695438654 -0.548124192
    outer loop
      vertex -0.353553391 0.853553391 -0.382683432
      vertex -0.500000000 0.500000000 -0.707106781
      vertex -0.653281482 0.653281482 -0.382683432
    endloop
  endfacet
  facet normal -0.695438654 0.464677252 -0.548124192
    outer loop
      vertex -0.653281482 0.653281482 -0.382683432
      vertex -0.500000000 0.500000000 -0.707106781
      vertex -0.653281482 0.270598050 -0.707106781
    endloop
  endfacet
  facet normal -0.695438654 0.464677252 -0.548124192
    outer loop
      vertex -0.653281482 0.653281482 -0.382683432
      vertex -0.653281482 0.270598050 -0.707106781
      vertex -0.853553391 0.353553391 -0.382683432
    endloop
  endfacet
  facet normal -0.820325824 0.163172952 -0.548124192
    outer loop
      vertex -0.853553391 0.353553391 -0.382683432
      vertex -0.653281482 0.270598050 -0.707106781
      vertex -0.707106781 0.000000000 -0.707106781
    endloop
  endfacet
  facet normal -0.820325824 0.163172952 -0.548124192
    outer loop
      vertex -0.853553391 0.353553391 -0.382683432
      vertex -0.707106781 0.000000000 -0.707106781
      vertex -0.923879533 0.000000000 -0.382683432
    endloop
  endfacet
  facet normal -0.820325824 -0.163172952 -0.548124192
    outer loop
      vertex -0.923879533 0.000000000 -0.382683432
      vertex -0.707106781 0.000000000 -0.707106781
      vertex -0.653281482 -0.270598050 -0.707106781
    endloop
  endfacet
  facet normal -0.820325824 -0.163172952 -0.548124192
    outer loop
      vertex -0.923879533 0.000000000 -0.382683432
      vertex -0.653281482 -0.270598050 -0.707106781
      vertex -0.853553391 -0.353553391 -0.382683432
    endloop
  endfacet
  facet normal -0.695438654 -0.464677252 -0.548124192
    outer loop
      vertex -0.853553391 -0.353553391 -0.382683432
      vertex -0.653281482 -0.270598050 -0.707106781
      vertex -0.500000000 -0.500000000 -0.707106781
    endloop
  endfacet
  facet normal -0.695438654 -0.464677252 -0.548124192
    outer loop
      vertex -0.853553391 -0.353553391 -0.382683432
      vertex -0.500000000 -0.500000000 -0.707106781
      vertex -0.653281482 -0.653281482 -0.382683432
    endloop
  endfacet
  facet normal -0.464677252 -0.695438654 -0.548124192
    outer loop
      vertex -0.653281482 -0.653281482 -0.382683432
      vertex -0.500000000 -0.500000000 -0.707106781
      vertex -0.270598050 -0.653281482 -0.707106781
    endloop
  endfacet
  facet normal -0.464677252 -0.695438654 -0.548124192
    outer loop
      vertex -0.653281482 -0.653281482 -0.382683432
      vertex -0.270598050 -0.653281482 -0.707106781
      vertex -0.353553391 -0.853553391 -0.382683432
    endloop
  endfacet
  facet normal -0.163172952 -0.820325824 -0.548124192
    outer loop
      vertex -0.353553391 -0.853553391 -0.382683432
      vertex -0.270598050 -0.653281482 -0.707106781
      vertex 0.000000000 -0.707106781 -0.707106781
    endloop
  endfacet
  facet normal -0.163172952 -0.820325824 -0.548124192
    outer loop
      vertex -0.353553391 -0.853553391 -0.382683432
      vertex 0.000000000 -0.707106781 -0.707106781
      vertex 0.000000000 -0.923879533 -0.382683432
    endloop
  endfacet
  facet normal 0.163172952 -0.820325824 -0.548124192
    outer loop
      vertex 0.000000000 -0.923879533 -0.382683432
      vertex 0.000000000 -0.707106781 -0.707106781
      vertex 0.270598050 -0.653281482 -0.707106781
    endloop
  endfacet
  facet normal 0.163172952 -0.820325824 -0.548124192
    outer loop
      vertex 0.000000000 -0.923879533 -0.382683432
      vertex 0.270598050 -0.653281482 -0.707106781
      vertex 0.353553391 -0.853553391 -0.382683432
    endloop
  endfacet
  facet normal 0.464677252 -0.695438654 -0.548124192
    outer loop
      vertex 0.353553391 -0.853553391 -0.382683432
      vertex 0.270598050 -0.653281482 -0.707106781
      vertex 0.500000000 -0.500000000 -0.707106781
    endloop
  endfacet
  facet normal 0.464677252 -0.695438654 -0.548124192
    outer loop
      vertex 0.353553391 -0.853553391 -0.382683432
      vertex 0.500000000 -0.500000000 -0.707106781
      vertex 0.653281482 -0.653281482 -0.382683432
    endloop
  endfacet
  facet normal 0.695438654 -0.464677252 -0.548124192
    outer loop
      vertex 0.653281482 -0.653281482 -0.382683432
      vertex 0.500000000 -0.500000000 -0.707106781
      vertex 0.653281482 -0.270598050 -0.707106781
    endloop
  endfacet
  facet normal 0.695438654 -0.464677252 -0.548124192
    outer loop
      vertex 0.653281482 -0.653281482 -0.382683432
      vertex 0.653281482 -0.270598050 -0.707106781
      vertex 0.853553391 -0.353553391 -0.382683432
    endloop
  endfacet
  facet normal 0.820325824 -0.163172952 -0.548124192
    outer loop
      vertex 0.853553391 -0.353553391 -0.382683432
      vertex 0.653281482 -0.270598050 -0.707106781
      vertex 0.707106781 0.000000000 -0.707106781
    endloop
  endfacet
  facet normal 0.820325824 -0.163172952 -0.548124192
    outer loop
      vertex 0.853553391 -0.353553391 -0.382683432
      vertex 0.707106781 0.000000000 -0.707106781
      vertex 0.923879533 0.000000000 -0.382683432
    endloop
  endfacet
  facet normal 0.552208566 0.109841113 -0.826438522
    outer loop
      vertex 0.707106781 0.000000000 -0.707106781
      vertex 0.382683432 0.000000000 -0.923879533
      vertex 0.353553391 0.146446609 -0.923879533
    endloop
  endfacet
  facet normal 0.552208566 0.109841113 -0.826438522
    outer loop
      vertex 0.707106781 0.000000000 -0.707106781
      vertex 0.353553391 0.146446609 -0.923879533
      vertex 0.653281482 0.270598050 -0.707106781
    endloop
  endfacet
  facet normal 0.468139817 0.312801025 -0.826438522
    outer loop
      vertex 0.653281482 0.270598050 -0.707106781
      vertex 0.353553391 0.146446609 -0.923879533
      vertex 0.270598050 0.270598050 -0.923879533
    endloop
  endfacet
  facet normal 0.468139817 0.312801025 -0.826438522
    outer loop
      vertex 0.653281482 0.270598050 -0.707106781
      vertex 0.270598050 0.270598050 -0.923879533
      vertex 0.500000000 0.500000000 -0.707106781
    endloop
  endfacet
  facet normal 0.312801025 0.468139817 -0.826438522
    outer loop
      vertex 0.500000000 0.500000000 -0.707106781
      vertex 0.270598050 0.270598050 -0.923879533
      vertex 0.146446609 0.353553391 -0.923879533
    endloop
  endfacet
  facet normal 0.312801025 0.468139817 -0.826438522
    outer loop
      vertex 0.500000000 0.500000000 -0.707106781
      vertex 0.146446609 0.353553391 -0.923879533
      vertex 0.270598050 0.653281482 -0.707106781
    endloop
  endfacet
  facet normal 0.109841113 0.552208566 -0.826438522
    outer loop
      vertex 0.270598050 0.653281482 -0.707106781
      vertex 0.146446609 0.353553391 -0.923879533
      vertex 0.000000000 0.382683432 -0.923879533
    endloop
  endfacet
  facet normal 0.109841113 0.552208566 -0.826438522
    outer loop
      vertex 0.270598050 0.653281482 -0.707106781
      vertex 0.000000000 0.382683432 -0.923879533
      vertex 0.000000000 0.707106781 -0.707106781
    endloop
  endfacet
  facet normal -0.109841113 0.552208566 -0.826438522
    outer loop
      vertex 0.000000000 0.707106781 -0.707106781
      vertex 0.000000000 0.382683432 -0.923879533
      vertex -0.146446609 0.353553391 -0.923879533
    endloop
  endfacet
  facet normal -0.109841113 0.552208566 -0.826438522
    outer loop
      vertex 0.000000000 0.707106781 -0.707106781
      vertex -0.146446609 0.353553391 -0.923879533
      vertex -0.270598050 0.653281482 -0.707106781
    endloop
  endfacet
  facet normal -0.312801025 0.468139817 -0.826438522
    outer loop
      vertex -0.270598050 0.653281482 -0.707106781
      vertex -0.146446609 0.353553391 -0.923879533
      vertex -0.270598050 0.270598050 -0.923879533
    endloop
  endfacet
  facet normal -0.312801025 0.468139817 -0.826438522
    outer loop
      vertex -0.270598050 0.653281482 -0.707106781
      vertex -0.270598050 0.270598050 -0.923879533
      vertex -0.500000000 0.500000000 -0.707106781
    endloop
  endfacet
  facet normal -0.468139817 0.312801025 -0.826438522
    outer loop
      vertex -0.500000000 0.500000000 -0.707106781
      vertex -0.270598050 0.270598050 -0.923879533
      vertex -0.353553391 0.146446609 -0.923879533
    endloop
  endfacet
  facet normal -0.468139817 0.312801025 -0.826438522
    outer loop
      vertex -0.500000000 0.500000000 -0.707106781
      vertex -0.353553391 0.146446609 -0.923879533
      vertex -0.653281482 0.270598050 -0.707106781
    endloop
  endfacet
  facet normal -0.552208566 0.109841113 -0.826438522
    outer loop
      vertex -0.653281482 0.270598050 -0.707106781
      vertex -0.353553391 0.146446609 -0.923879533
      vertex -0.382683432 0.000000000 -0.923879533
    endloop
  endfacet
  facet normal -0.552208566 0.109841113 -0.826438522
    outer loop
      vertex -0.653281482 0.270598050 -0.707106781
      vertex -0.382683432 0.000000000 -0.923879533
      vertex -0.707106781 0.000000000 -0.707106781
    endloop
  endfacet
  facet normal -0.552208566 -0.109841113 -0.826438522
    outer loop
      vertex -0.707106781 0.000000000 -0.707106781
      vertex -0.382683432 0.000000000 -0.923879533
      vertex -0.353553391 -0.146446609 -0.923879533
    endloop
  endfacet
  facet normal -0.552208566 -0.109841113 -0.826438522
    outer loop
      vertex -0.707106781 0.000000000 -0.707106781
      vertex -0.353553391 -0.146446609 -0.923879533
      vertex -0.653281482 -0.270598050 -0.707106781
    endloop
  endfacet
  facet normal -0.468139817 -0.312801025 -0.826438522
    outer loop
      vertex -0.653281482 -0.270598050 -0.707106781
      vertex -0.353553391 -0.146446609 -0.923879533
      vertex -0.270598050 -0.270598050 -0.923879533
    endloop
  endfacet
  facet normal -0.468139817 -0.312801025 -0.826438522
    outer loop
      vertex -0.653281482 -0.270598050 -0.707106781
      vertex -0.270598050 -0.270598050 -0.923879533
      vertex -0.500000000 -0.500000000 -0.707106781
    endloop
  endfacet
  facet normal -0.312801025 -0.468139817 -0.826438522
    outer loop
      vertex -0.500000000 -0.500000000 -0.707106781
      vertex -0.270598050 -0.270598050 -0.923879533
      vertex -0.146446609 -0.353553391 -0.923879533
    endloop
  endfacet
  facet normal -0.312801025 -0.468139817 -0.826438522
    outer loop
      vertex -0.500000000 -0.500000000 -0.707106781
      vertex -0.146446609 -0.353553391 -0.923879533
      vertex -0.270598050 -0.653281482 -0.707106781
    endloop
  endfacet
  facet normal -0.109841113 -0.552208566 -0.826438522
    outer loop
      vertex -0.270598050 -0.653281482 -0.707106781
      vertex -0.146446609 -0.353553391 -0.923879533
      vertex 0.000000000 -0.382683432 -0.923879533
    endloop
  endfacet
  facet normal -0.109841113 -0.552208566 -0.826438522
    outer loop
      vertex -0.270598050 -0.653281482 -0.707106781
      vertex 0.000000000 -0.382683432 -0.923879533
      vertex 0.000000000 -0.707106781 -0.707106781
    endloop
  endfacet
  facet normal 0.109841113 -0.552208566 -0.826438522
    outer loop
      vertex 0.000000000 -0.707106781 -0.707106781
      vertex 0.000000000 -0.382683432 -0.923879533
      vertex 0.146446609 -0.353553391 -0.923879533
    endloop
  endfacet
  facet normal 0.109841113 -0.552208566 -0.826438522
    outer loop
      vertex 0.000000000 -0.707106781 -0.707106781
      vertex 0.146446609 -0.353553391 -0.923879533
      vertex 0.270598050 -0.653281482 -0.707106781
    endloop
  endfacet
  facet normal 0.312801025 -0.468139817 -0.826438522
    outer loop
      vertex 0.270598050 -0.653281482 -0.707106781
      vertex 0.146446609 -0.353553391 -0.923879533
      vertex 0.270598050 -0.270598050 -0.923879533
    endloop
  endfacet
  facet normal 0.312801025 -0.468139817 -0.826438522
    outer loop
      vertex 0.270598050 -0.653281482 -0.707106781
      vertex 0.270598050 -0.270598050 -0.923879533
      vertex 0.500000000 -0.500000000 -0.707106781
    endloop
  endfacet
  facet normal 0.468139817 -0.312801025 -0.826438522
    outer loop
      vertex 0.500000000 -0.500000000 -0.707106781
      vertex 0.270598050 -0.270598050 -0.923879533
      vertex 0.353553391 -0.146446609 -0.923879533
    endloop
  endfacet
  facet normal 0.468139817 -0.312801025 -0.826438522
    outer loop
      vertex 0.500000000 -0.500000000 -0.707106781
      vertex 0.353553391 -0.146446609 -0.923879533
      vertex 0.653281482 -0.270598050 -0.707106781
    endloop
  endfacet
  facet normal 0.552208566 -0.109841113 -0.826438522
    outer loop
      vertex 0.653281482 -0.270598050 -0.707106781
      vertex 0.353553391 -0.146446609 -0.923879533
      vertex 0.382683432 0.000000000 -0.923879533
    endloop
  endfacet
  facet normal 0.552208566 -0.109841113 -0.826438522
    outer loop
      vertex 0.653281482 -0.270598050 -0.707106781
      vertex 0.382683432 0.000000000 -0.923879533
      vertex 0.707106781 0.000000000 -0.707106781
    endloop
  endfacet
  facet normal 0.194943595 0.038776692 -0.980047633
    outer loop
      vertex 0.000000000 0.000000000 -1.000000000
      vertex 0.353553391 0.146446609 -0.923879533
      vertex 0.382683432 0.000000000 -0.923879533
    endloop
  endfacet
  facet normal 0.165265200 0.110426676 -0.980047633
    outer loop
      vertex 0.000000000 0.000000000 -1.000000000
      vertex 0.270598050 0.270598050 -0.923879533
      vertex 0.353553391 0.146446609 -0.923879533
    endloop
  endfacet
  facet normal 0.110426676 0.165265200 -0.980047633
    outer loop
      vertex 0.000000000 0.000000000 -1.000000000
      vertex 0.146446609 0.353553391 -0.923879533
      vertex 0.270598050 0.270598050 -0.923879533
    endloop
  endfacet
  facet normal 0.038776692 0.194943595 -0.980047633
    outer loop
      vertex 0.000000000 0.000000000 -1.000000000
      vertex 0.000000000 0.382683432 -0.923879533
      vertex 0.146446609 0.353553391 -0.923879533
    endloop
  endfacet
  facet normal -0.038776692 0.194943595 -0.980047633
    outer loop
      vertex 0.000000000 0.000000000 -1.000000000
      vertex -0.146446609 0.353553391 -0.923879533
      vertex 0.000000000 0.382683432 -0.923879533
    endloop
  endfacet
  facet normal -0.110426676 0.165265200 -0.980047633
    outer loop
      vertex 0.000000000 0.000000000 -1.000000000
      vertex -0.270598050 0.270598050 -0.923879533
      vertex -0.146446609 0.353553391 -0.923879533
    endloop
  endfacet
  facet normal -0.165265200 0.110426676 -0.980047633
    outer loop
      vertex 0.000000000 0.000000000 -1.000000000
      vertex -0.353553391 0.146446609 -0.923879533
      vertex -0.270598050 0.270598050 -0.923879533
    endloop
  endfacet
  facet normal -0.194943595 0.038776692 -0.980047633
    outer loop
      vertex 0.000000000 0.000000000 -1.000000000
      vertex -0.382683432 0.000000000 -0.923879533
      vertex -0.353553391 0.146446609 -0.923879533
    endloop
  endfacet
  facet normal -0.194943595 -0.038776692 -0.980047633
    outer loop
      vertex 0.000000000 0.000000000 -1.000000000
      vertex -0.353553391 -0.146446609 -0.923879533
      vertex -0.382683432 0.000000000 -0.923879533
    endloop
  endfacet
  facet normal -0.165265200 -0.110426676 -0.980047633
    outer loop
      vertex 0.000000000 0.000000000 -1.000000000
      vertex -0.270598050 -0.270598050 -0.923879533
      vertex -0.353553391 -0.146446609 -0.923879533
    endloop
  endfacet
  facet normal -0.110426676 -0.165265200 -0.980047633
    outer loop
      vertex 0.000000000 0.000000000 -1.000000000
      vertex -0.146446609 -0.353553391 -0.923879533
      vertex -0.270598050 -0.270598050 -0.923879533
    endloop
  endfacet
  facet normal -0.038776692 -0.194943595 -0.980047633
    outer loop
      vertex 0.000000000 0.000000000 -1.000000000
      vertex 0.000000000 -0.382683432 -0.923879533
      vertex -0.146446609 -0.353553391 -0.923879533
    endloop
  endfacet
  facet normal 0.038776692 -0.194943595 -0.980047633
    outer loop
      vertex 0.000000000 0.000000000 -1.000000000
      vertex 0.146446609 -0.353553391 -0.923879533
      vertex 0.000000000 -0.382683432 -0.923879533
    endloop
  endfacet
  facet normal 0.110426676 -0.165265200 -0.980047633
    outer loop
      vertex 0.000000000 0.000000000 -1.000000000
      vertex 0.270598050 -0.270598050 -0.923879533
      vertex 0.146446609 -0.353553391 -0.923879533
    endloop
  endfacet
  facet normal 0.165265200 -0.110426676 -0.980047633
    outer loop
      vertex 0.000000000 0.000000000 -1.000000000
      vertex 0.353553391 -0.146446609 -0.923879533
      vertex 0.270598050 -0.270598050 -0.923879533
    endloop
  endfacet
  facet normal 0.194943595 -0.038776692 -0.980047633
    outer loop
      vertex 0.000000000 0.000000000 -1.000000000
      vertex 0.382683432 0.000000000 -0.923879533
      vertex 0.353553391 -0.146446609 -0.923879533
    endloop
  endfacet
endsolid unit_sphere
